# xmcd
#
# Track frame offsets:
#	150
#	24312
#	43494
#	59936
#	77351
#	99371
#	115364
#	132445
#	148271
#	170754
#	190106
#	211523
#
# Disc length: 3548 seconds
#
# Revision: 1
# Processed by: cddbd v1.5.1PL0 Copyright (c) Steve Scherf et al.
# Submitted via: audiograbber 1.83.01
#
DISCID=ae0dda0c
DTITLE=Keith Urban - Golden Road
DYEAR=2004
DGENRE=Country
TTITLE0=Somebody Like You
TTITLE1=Who Wouldn`t Wanna Be Me
TTITLE2=Whenever I Run
TTITLE3=What About Me
TTITLE4=You`ll Think Of Me
TTITLE5=Jeans On
TTITLE6=You Look Good In My Shirt
TTITLE7=You`re Not Alone Tonight
TTITLE8=You Won
TTITLE9=Song For Dad
TTITLE10=Raining On Sunday
TTITLE11=You`re Not My God
EXTD=
EXTT0=
EXTT1=
EXTT2=
EXTT3=
EXTT4=
EXTT5=
EXTT6=
EXTT7=
EXTT8=
EXTT9=
EXTT10=
EXTT11=
PLAYORDER=
